<mxfile host="app.diagrams.net" modified="2022-03-28T19:18:27.655Z" agent="5.0 (Windows NT 10.0; Win64; x64) AppleWebKit/537.36 (KHTML, like Gecko) Chrome/99.0.4844.84 Safari/537.36" etag="2iYdXVxI4vPEkTB2mN8h" version="17.1.3" type="github" pages="2">
  <diagram id="NVe3drxzVV5A07jIrI71" name="Login package">
    <mxGraphModel dx="865" dy="483" grid="1" gridSize="10" guides="1" tooltips="1" connect="1" arrows="1" fold="1" page="1" pageScale="1" pageWidth="827" pageHeight="1169" math="0" shadow="0">
      <root>
        <mxCell id="0" />
        <mxCell id="1" parent="0" />
        <mxCell id="YZRHoNBa_g8_ohZdsysS-3" value="User Database" style="shape=umlActor;verticalLabelPosition=bottom;verticalAlign=top;html=1;outlineConnect=0;" parent="1" vertex="1">
          <mxGeometry x="570" y="210" width="30" height="60" as="geometry" />
        </mxCell>
        <mxCell id="YZRHoNBa_g8_ohZdsysS-4" value="User" style="shape=umlActor;verticalLabelPosition=bottom;verticalAlign=top;html=1;outlineConnect=0;" parent="1" vertex="1">
          <mxGeometry x="170" y="210" width="30" height="60" as="geometry" />
        </mxCell>
        <mxCell id="YZRHoNBa_g8_ohZdsysS-5" value="" style="shape=folder;fontStyle=1;spacingTop=10;tabWidth=50;tabHeight=15;tabPosition=left;html=1;" parent="1" vertex="1">
          <mxGeometry x="270" y="115" width="230" height="275" as="geometry" />
        </mxCell>
        <mxCell id="YZRHoNBa_g8_ohZdsysS-7" value="Login" style="text;html=1;strokeColor=none;fillColor=none;align=center;verticalAlign=middle;whiteSpace=wrap;rounded=0;" parent="1" vertex="1">
          <mxGeometry x="270" y="115" width="50" height="15" as="geometry" />
        </mxCell>
        <mxCell id="YZRHoNBa_g8_ohZdsysS-9" value="SignIn" style="ellipse;whiteSpace=wrap;html=1;" parent="1" vertex="1">
          <mxGeometry x="315" y="150" width="140" height="70" as="geometry" />
        </mxCell>
        <mxCell id="YZRHoNBa_g8_ohZdsysS-10" value="UpdateProfile" style="ellipse;whiteSpace=wrap;html=1;" parent="1" vertex="1">
          <mxGeometry x="315" y="230" width="140" height="70" as="geometry" />
        </mxCell>
        <mxCell id="YZRHoNBa_g8_ohZdsysS-16" value="" style="endArrow=none;html=1;rounded=0;entryX=0;entryY=0.5;entryDx=0;entryDy=0;" parent="1" target="YZRHoNBa_g8_ohZdsysS-9" edge="1">
          <mxGeometry width="50" height="50" relative="1" as="geometry">
            <mxPoint x="200" y="240" as="sourcePoint" />
            <mxPoint x="380" y="270" as="targetPoint" />
          </mxGeometry>
        </mxCell>
        <mxCell id="YZRHoNBa_g8_ohZdsysS-17" value="LogOut" style="ellipse;whiteSpace=wrap;html=1;" parent="1" vertex="1">
          <mxGeometry x="315" y="310" width="140" height="70" as="geometry" />
        </mxCell>
        <mxCell id="YZRHoNBa_g8_ohZdsysS-18" value="" style="endArrow=none;html=1;rounded=0;entryX=0;entryY=0.5;entryDx=0;entryDy=0;" parent="1" target="YZRHoNBa_g8_ohZdsysS-10" edge="1">
          <mxGeometry width="50" height="50" relative="1" as="geometry">
            <mxPoint x="200" y="240" as="sourcePoint" />
            <mxPoint x="310" y="260" as="targetPoint" />
          </mxGeometry>
        </mxCell>
        <mxCell id="YZRHoNBa_g8_ohZdsysS-19" value="" style="endArrow=none;html=1;rounded=0;entryX=0;entryY=0.5;entryDx=0;entryDy=0;" parent="1" target="YZRHoNBa_g8_ohZdsysS-17" edge="1">
          <mxGeometry width="50" height="50" relative="1" as="geometry">
            <mxPoint x="200" y="240" as="sourcePoint" />
            <mxPoint x="370" y="260" as="targetPoint" />
          </mxGeometry>
        </mxCell>
        <mxCell id="YZRHoNBa_g8_ohZdsysS-22" value="" style="endArrow=none;html=1;rounded=0;entryX=1;entryY=0.5;entryDx=0;entryDy=0;" parent="1" target="YZRHoNBa_g8_ohZdsysS-9" edge="1">
          <mxGeometry width="50" height="50" relative="1" as="geometry">
            <mxPoint x="560" y="240" as="sourcePoint" />
            <mxPoint x="370" y="260" as="targetPoint" />
          </mxGeometry>
        </mxCell>
        <mxCell id="YZRHoNBa_g8_ohZdsysS-23" value="" style="endArrow=none;html=1;rounded=0;exitX=1;exitY=0.5;exitDx=0;exitDy=0;" parent="1" source="YZRHoNBa_g8_ohZdsysS-10" edge="1">
          <mxGeometry width="50" height="50" relative="1" as="geometry">
            <mxPoint x="320" y="310" as="sourcePoint" />
            <mxPoint x="560" y="240" as="targetPoint" />
          </mxGeometry>
        </mxCell>
        <mxCell id="s-TxkrSy6Z197pnSKO5Q-1" value="Student" style="shape=umlActor;verticalLabelPosition=bottom;verticalAlign=top;html=1;outlineConnect=0;" parent="1" vertex="1">
          <mxGeometry x="90" y="370" width="30" height="60" as="geometry" />
        </mxCell>
        <mxCell id="s-TxkrSy6Z197pnSKO5Q-2" value="Faculty&lt;br&gt;Administrative&lt;br&gt;Staff" style="shape=umlActor;verticalLabelPosition=bottom;verticalAlign=top;html=1;outlineConnect=0;" parent="1" vertex="1">
          <mxGeometry x="220" y="370" width="30" height="60" as="geometry" />
        </mxCell>
        <mxCell id="s-TxkrSy6Z197pnSKO5Q-3" value="Teacher" style="shape=umlActor;verticalLabelPosition=bottom;verticalAlign=top;html=1;outlineConnect=0;" parent="1" vertex="1">
          <mxGeometry x="160" y="370" width="30" height="60" as="geometry" />
        </mxCell>
        <mxCell id="s-TxkrSy6Z197pnSKO5Q-8" value="" style="endArrow=block;endSize=16;endFill=0;html=1;rounded=0;exitX=0.5;exitY=0;exitDx=0;exitDy=0;exitPerimeter=0;" parent="1" source="s-TxkrSy6Z197pnSKO5Q-1" edge="1">
          <mxGeometry width="160" relative="1" as="geometry">
            <mxPoint x="270" y="370" as="sourcePoint" />
            <mxPoint x="170" y="300" as="targetPoint" />
          </mxGeometry>
        </mxCell>
        <mxCell id="s-TxkrSy6Z197pnSKO5Q-9" value="" style="endArrow=block;endSize=16;endFill=0;html=1;rounded=0;exitX=0.5;exitY=0;exitDx=0;exitDy=0;exitPerimeter=0;" parent="1" source="s-TxkrSy6Z197pnSKO5Q-3" edge="1">
          <mxGeometry width="160" relative="1" as="geometry">
            <mxPoint x="115" y="380" as="sourcePoint" />
            <mxPoint x="180" y="300" as="targetPoint" />
          </mxGeometry>
        </mxCell>
        <mxCell id="s-TxkrSy6Z197pnSKO5Q-10" value="" style="endArrow=block;endSize=16;endFill=0;html=1;rounded=0;exitX=0.5;exitY=0;exitDx=0;exitDy=0;exitPerimeter=0;" parent="1" source="s-TxkrSy6Z197pnSKO5Q-2" edge="1">
          <mxGeometry width="160" relative="1" as="geometry">
            <mxPoint x="125" y="390" as="sourcePoint" />
            <mxPoint x="190" y="300" as="targetPoint" />
          </mxGeometry>
        </mxCell>
      </root>
    </mxGraphModel>
  </diagram>
  <diagram id="roR02EORPll3p0XIsnfh" name="Courses package">
    <mxGraphModel dx="716" dy="399" grid="1" gridSize="10" guides="1" tooltips="1" connect="1" arrows="1" fold="1" page="1" pageScale="1" pageWidth="827" pageHeight="1169" math="0" shadow="0">
      <root>
        <mxCell id="O806-VVfZz3sZx4Fcp8V-0" />
        <mxCell id="O806-VVfZz3sZx4Fcp8V-1" parent="O806-VVfZz3sZx4Fcp8V-0" />
        <mxCell id="hcTjZ3_lMF7yvwBpP4Bc-0" value="" style="shape=folder;fontStyle=1;spacingTop=10;tabWidth=90;tabHeight=30;tabPosition=left;html=1;" parent="O806-VVfZz3sZx4Fcp8V-1" vertex="1">
          <mxGeometry x="240" y="40" width="380" height="1090" as="geometry" />
        </mxCell>
        <mxCell id="hcTjZ3_lMF7yvwBpP4Bc-1" value="Courses" style="text;align=center;fontStyle=1;verticalAlign=middle;spacingLeft=3;spacingRight=3;strokeColor=none;rotatable=0;points=[[0,0.5],[1,0.5]];portConstraint=eastwest;" parent="O806-VVfZz3sZx4Fcp8V-1" vertex="1">
          <mxGeometry x="240" y="40" width="90" height="30" as="geometry" />
        </mxCell>
        <mxCell id="hcTjZ3_lMF7yvwBpP4Bc-3" value="Student" style="shape=umlActor;verticalLabelPosition=bottom;verticalAlign=top;html=1;" parent="O806-VVfZz3sZx4Fcp8V-1" vertex="1">
          <mxGeometry x="130" y="225" width="30" height="60" as="geometry" />
        </mxCell>
        <mxCell id="hcTjZ3_lMF7yvwBpP4Bc-4" value="Teacher" style="shape=umlActor;verticalLabelPosition=bottom;verticalAlign=top;html=1;" parent="O806-VVfZz3sZx4Fcp8V-1" vertex="1">
          <mxGeometry x="130" y="480" width="30" height="60" as="geometry" />
        </mxCell>
        <mxCell id="hcTjZ3_lMF7yvwBpP4Bc-5" value="Chief Teacher" style="shape=umlActor;verticalLabelPosition=bottom;verticalAlign=top;html=1;" parent="O806-VVfZz3sZx4Fcp8V-1" vertex="1">
          <mxGeometry x="130" y="670" width="30" height="60" as="geometry" />
        </mxCell>
        <mxCell id="hcTjZ3_lMF7yvwBpP4Bc-6" value="" style="endArrow=block;endSize=16;endFill=0;html=1;rounded=0;exitX=0.5;exitY=0;exitDx=0;exitDy=0;exitPerimeter=0;" parent="O806-VVfZz3sZx4Fcp8V-1" source="hcTjZ3_lMF7yvwBpP4Bc-5" edge="1">
          <mxGeometry width="160" relative="1" as="geometry">
            <mxPoint x="330" y="500" as="sourcePoint" />
            <mxPoint x="145" y="560" as="targetPoint" />
          </mxGeometry>
        </mxCell>
        <mxCell id="hcTjZ3_lMF7yvwBpP4Bc-7" value="Faculty&lt;br&gt;Administrative&lt;br&gt;Staff" style="shape=umlActor;verticalLabelPosition=bottom;verticalAlign=top;html=1;" parent="O806-VVfZz3sZx4Fcp8V-1" vertex="1">
          <mxGeometry x="130" y="900" width="30" height="60" as="geometry" />
        </mxCell>
        <mxCell id="hcTjZ3_lMF7yvwBpP4Bc-11" value="ViewGrantStatus" style="ellipse;whiteSpace=wrap;html=1;" parent="O806-VVfZz3sZx4Fcp8V-1" vertex="1">
          <mxGeometry x="360" y="380" width="120" height="50" as="geometry" />
        </mxCell>
        <mxCell id="hcTjZ3_lMF7yvwBpP4Bc-12" value="ViewGrades" style="ellipse;whiteSpace=wrap;html=1;" parent="O806-VVfZz3sZx4Fcp8V-1" vertex="1">
          <mxGeometry x="360" y="330" width="120" height="50" as="geometry" />
        </mxCell>
        <mxCell id="hcTjZ3_lMF7yvwBpP4Bc-56" value="" style="edgeStyle=orthogonalEdgeStyle;rounded=0;orthogonalLoop=1;jettySize=auto;html=1;fontSize=11;dashed=1;" parent="O806-VVfZz3sZx4Fcp8V-1" source="hcTjZ3_lMF7yvwBpP4Bc-13" target="hcTjZ3_lMF7yvwBpP4Bc-55" edge="1">
          <mxGeometry relative="1" as="geometry" />
        </mxCell>
        <mxCell id="hcTjZ3_lMF7yvwBpP4Bc-13" value="SignContract" style="ellipse;whiteSpace=wrap;html=1;" parent="O806-VVfZz3sZx4Fcp8V-1" vertex="1">
          <mxGeometry x="290" y="280" width="120" height="50" as="geometry" />
        </mxCell>
        <mxCell id="hcTjZ3_lMF7yvwBpP4Bc-14" value="ListOptionals" style="ellipse;whiteSpace=wrap;html=1;" parent="O806-VVfZz3sZx4Fcp8V-1" vertex="1">
          <mxGeometry x="360" y="180" width="120" height="50" as="geometry" />
        </mxCell>
        <mxCell id="hcTjZ3_lMF7yvwBpP4Bc-15" value="ViewCurriculum" style="ellipse;whiteSpace=wrap;html=1;" parent="O806-VVfZz3sZx4Fcp8V-1" vertex="1">
          <mxGeometry x="360" y="130" width="120" height="50" as="geometry" />
        </mxCell>
        <mxCell id="hcTjZ3_lMF7yvwBpP4Bc-16" value="EnrollYear" style="ellipse;whiteSpace=wrap;html=1;" parent="O806-VVfZz3sZx4Fcp8V-1" vertex="1">
          <mxGeometry x="290" y="80" width="120" height="50" as="geometry" />
        </mxCell>
        <mxCell id="hcTjZ3_lMF7yvwBpP4Bc-18" value="AssignStudents" style="ellipse;whiteSpace=wrap;html=1;" parent="O806-VVfZz3sZx4Fcp8V-1" vertex="1">
          <mxGeometry x="360" y="230" width="120" height="50" as="geometry" />
        </mxCell>
        <mxCell id="hcTjZ3_lMF7yvwBpP4Bc-19" value="" style="endArrow=none;html=1;rounded=0;entryX=0;entryY=0.5;entryDx=0;entryDy=0;" parent="O806-VVfZz3sZx4Fcp8V-1" source="hcTjZ3_lMF7yvwBpP4Bc-3" target="hcTjZ3_lMF7yvwBpP4Bc-16" edge="1">
          <mxGeometry width="50" height="50" relative="1" as="geometry">
            <mxPoint x="390" y="350" as="sourcePoint" />
            <mxPoint x="440" y="300" as="targetPoint" />
          </mxGeometry>
        </mxCell>
        <mxCell id="hcTjZ3_lMF7yvwBpP4Bc-21" value="" style="endArrow=none;html=1;rounded=0;entryX=0;entryY=0.5;entryDx=0;entryDy=0;exitX=1;exitY=0.3333333333333333;exitDx=0;exitDy=0;exitPerimeter=0;" parent="O806-VVfZz3sZx4Fcp8V-1" source="hcTjZ3_lMF7yvwBpP4Bc-3" target="hcTjZ3_lMF7yvwBpP4Bc-15" edge="1">
          <mxGeometry width="50" height="50" relative="1" as="geometry">
            <mxPoint x="170" y="254.53488372093022" as="sourcePoint" />
            <mxPoint x="370" y="115" as="targetPoint" />
          </mxGeometry>
        </mxCell>
        <mxCell id="hcTjZ3_lMF7yvwBpP4Bc-23" value="" style="endArrow=none;html=1;rounded=0;entryX=0;entryY=0.5;entryDx=0;entryDy=0;exitX=1;exitY=0.3333333333333333;exitDx=0;exitDy=0;exitPerimeter=0;" parent="O806-VVfZz3sZx4Fcp8V-1" source="hcTjZ3_lMF7yvwBpP4Bc-3" target="hcTjZ3_lMF7yvwBpP4Bc-14" edge="1">
          <mxGeometry width="50" height="50" relative="1" as="geometry">
            <mxPoint x="160" y="250" as="sourcePoint" />
            <mxPoint x="370" y="215" as="targetPoint" />
          </mxGeometry>
        </mxCell>
        <mxCell id="hcTjZ3_lMF7yvwBpP4Bc-24" value="" style="endArrow=none;html=1;rounded=0;entryX=0;entryY=0.5;entryDx=0;entryDy=0;exitX=1;exitY=0.3333333333333333;exitDx=0;exitDy=0;exitPerimeter=0;" parent="O806-VVfZz3sZx4Fcp8V-1" source="hcTjZ3_lMF7yvwBpP4Bc-3" target="hcTjZ3_lMF7yvwBpP4Bc-13" edge="1">
          <mxGeometry width="50" height="50" relative="1" as="geometry">
            <mxPoint x="160" y="260" as="sourcePoint" />
            <mxPoint x="380" y="225" as="targetPoint" />
          </mxGeometry>
        </mxCell>
        <mxCell id="hcTjZ3_lMF7yvwBpP4Bc-25" value="" style="endArrow=none;html=1;rounded=0;entryX=0;entryY=0.5;entryDx=0;entryDy=0;exitX=1;exitY=0.3333333333333333;exitDx=0;exitDy=0;exitPerimeter=0;" parent="O806-VVfZz3sZx4Fcp8V-1" source="hcTjZ3_lMF7yvwBpP4Bc-3" target="hcTjZ3_lMF7yvwBpP4Bc-12" edge="1">
          <mxGeometry width="50" height="50" relative="1" as="geometry">
            <mxPoint x="130" y="330" as="sourcePoint" />
            <mxPoint x="180" y="280" as="targetPoint" />
          </mxGeometry>
        </mxCell>
        <mxCell id="hcTjZ3_lMF7yvwBpP4Bc-26" value="" style="endArrow=none;html=1;rounded=0;entryX=0;entryY=0.5;entryDx=0;entryDy=0;exitX=1;exitY=0.3333333333333333;exitDx=0;exitDy=0;exitPerimeter=0;" parent="O806-VVfZz3sZx4Fcp8V-1" source="hcTjZ3_lMF7yvwBpP4Bc-3" target="hcTjZ3_lMF7yvwBpP4Bc-11" edge="1">
          <mxGeometry width="50" height="50" relative="1" as="geometry">
            <mxPoint x="140" y="340" as="sourcePoint" />
            <mxPoint x="370" y="365" as="targetPoint" />
          </mxGeometry>
        </mxCell>
        <mxCell id="hcTjZ3_lMF7yvwBpP4Bc-27" value="ProposeOptionals" style="ellipse;whiteSpace=wrap;html=1;" parent="O806-VVfZz3sZx4Fcp8V-1" vertex="1">
          <mxGeometry x="360" y="430" width="120" height="50" as="geometry" />
        </mxCell>
        <mxCell id="hcTjZ3_lMF7yvwBpP4Bc-28" value="GradeStudent" style="ellipse;whiteSpace=wrap;html=1;" parent="O806-VVfZz3sZx4Fcp8V-1" vertex="1">
          <mxGeometry x="360" y="480" width="120" height="50" as="geometry" />
        </mxCell>
        <mxCell id="hcTjZ3_lMF7yvwBpP4Bc-29" value="ViewAssignedGrades" style="ellipse;whiteSpace=wrap;html=1;" parent="O806-VVfZz3sZx4Fcp8V-1" vertex="1">
          <mxGeometry x="350" y="530" width="140" height="50" as="geometry" />
        </mxCell>
        <mxCell id="hcTjZ3_lMF7yvwBpP4Bc-30" value="" style="endArrow=none;html=1;rounded=0;entryX=1;entryY=0.3333333333333333;entryDx=0;entryDy=0;entryPerimeter=0;exitX=0;exitY=0.5;exitDx=0;exitDy=0;" parent="O806-VVfZz3sZx4Fcp8V-1" source="hcTjZ3_lMF7yvwBpP4Bc-27" target="hcTjZ3_lMF7yvwBpP4Bc-4" edge="1">
          <mxGeometry width="50" height="50" relative="1" as="geometry">
            <mxPoint x="410" y="550" as="sourcePoint" />
            <mxPoint x="460" y="500" as="targetPoint" />
          </mxGeometry>
        </mxCell>
        <mxCell id="hcTjZ3_lMF7yvwBpP4Bc-31" value="" style="endArrow=none;html=1;rounded=0;exitX=0;exitY=0.5;exitDx=0;exitDy=0;" parent="O806-VVfZz3sZx4Fcp8V-1" source="hcTjZ3_lMF7yvwBpP4Bc-28" edge="1">
          <mxGeometry width="50" height="50" relative="1" as="geometry">
            <mxPoint x="370" y="465" as="sourcePoint" />
            <mxPoint x="160" y="500" as="targetPoint" />
          </mxGeometry>
        </mxCell>
        <mxCell id="hcTjZ3_lMF7yvwBpP4Bc-32" value="" style="endArrow=none;html=1;rounded=0;exitX=0;exitY=0.5;exitDx=0;exitDy=0;" parent="O806-VVfZz3sZx4Fcp8V-1" source="hcTjZ3_lMF7yvwBpP4Bc-29" edge="1">
          <mxGeometry width="50" height="50" relative="1" as="geometry">
            <mxPoint x="370" y="515" as="sourcePoint" />
            <mxPoint x="160" y="500" as="targetPoint" />
          </mxGeometry>
        </mxCell>
        <mxCell id="hcTjZ3_lMF7yvwBpP4Bc-33" value="ViewOptionals" style="ellipse;whiteSpace=wrap;html=1;" parent="O806-VVfZz3sZx4Fcp8V-1" vertex="1">
          <mxGeometry x="360" y="580" width="120" height="50" as="geometry" />
        </mxCell>
        <mxCell id="hcTjZ3_lMF7yvwBpP4Bc-34" value="ApproveOptionals" style="ellipse;whiteSpace=wrap;html=1;" parent="O806-VVfZz3sZx4Fcp8V-1" vertex="1">
          <mxGeometry x="360" y="630" width="120" height="50" as="geometry" />
        </mxCell>
        <mxCell id="hcTjZ3_lMF7yvwBpP4Bc-35" value="SpecifyMaxStudents" style="ellipse;whiteSpace=wrap;html=1;" parent="O806-VVfZz3sZx4Fcp8V-1" vertex="1">
          <mxGeometry x="360" y="680" width="120" height="50" as="geometry" />
        </mxCell>
        <mxCell id="hcTjZ3_lMF7yvwBpP4Bc-36" value="ViewTeacherPerformance" style="ellipse;whiteSpace=wrap;html=1;" parent="O806-VVfZz3sZx4Fcp8V-1" vertex="1">
          <mxGeometry x="330" y="730" width="180" height="50" as="geometry" />
        </mxCell>
        <mxCell id="hcTjZ3_lMF7yvwBpP4Bc-37" value="ViewDisciplines" style="ellipse;whiteSpace=wrap;html=1;" parent="O806-VVfZz3sZx4Fcp8V-1" vertex="1">
          <mxGeometry x="360" y="780" width="120" height="50" as="geometry" />
        </mxCell>
        <mxCell id="hcTjZ3_lMF7yvwBpP4Bc-39" value="" style="endArrow=none;html=1;rounded=0;fontSize=11;exitX=1;exitY=0.3333333333333333;exitDx=0;exitDy=0;exitPerimeter=0;entryX=0;entryY=0.5;entryDx=0;entryDy=0;" parent="O806-VVfZz3sZx4Fcp8V-1" source="hcTjZ3_lMF7yvwBpP4Bc-5" target="hcTjZ3_lMF7yvwBpP4Bc-33" edge="1">
          <mxGeometry width="50" height="50" relative="1" as="geometry">
            <mxPoint x="410" y="780" as="sourcePoint" />
            <mxPoint x="460" y="730" as="targetPoint" />
          </mxGeometry>
        </mxCell>
        <mxCell id="hcTjZ3_lMF7yvwBpP4Bc-40" value="" style="endArrow=none;html=1;rounded=0;fontSize=11;exitX=1;exitY=0.3333333333333333;exitDx=0;exitDy=0;exitPerimeter=0;entryX=0;entryY=0.5;entryDx=0;entryDy=0;" parent="O806-VVfZz3sZx4Fcp8V-1" source="hcTjZ3_lMF7yvwBpP4Bc-5" target="hcTjZ3_lMF7yvwBpP4Bc-34" edge="1">
          <mxGeometry width="50" height="50" relative="1" as="geometry">
            <mxPoint x="170" y="700" as="sourcePoint" />
            <mxPoint x="370" y="615" as="targetPoint" />
          </mxGeometry>
        </mxCell>
        <mxCell id="hcTjZ3_lMF7yvwBpP4Bc-41" value="" style="endArrow=none;html=1;rounded=0;fontSize=11;entryX=0;entryY=0.5;entryDx=0;entryDy=0;" parent="O806-VVfZz3sZx4Fcp8V-1" target="hcTjZ3_lMF7yvwBpP4Bc-35" edge="1">
          <mxGeometry width="50" height="50" relative="1" as="geometry">
            <mxPoint x="160" y="690" as="sourcePoint" />
            <mxPoint x="370" y="665" as="targetPoint" />
          </mxGeometry>
        </mxCell>
        <mxCell id="hcTjZ3_lMF7yvwBpP4Bc-42" value="" style="endArrow=none;html=1;rounded=0;fontSize=11;entryX=0;entryY=0.5;entryDx=0;entryDy=0;" parent="O806-VVfZz3sZx4Fcp8V-1" target="hcTjZ3_lMF7yvwBpP4Bc-36" edge="1">
          <mxGeometry width="50" height="50" relative="1" as="geometry">
            <mxPoint x="160" y="690" as="sourcePoint" />
            <mxPoint x="380" y="675" as="targetPoint" />
          </mxGeometry>
        </mxCell>
        <mxCell id="hcTjZ3_lMF7yvwBpP4Bc-43" value="" style="endArrow=none;html=1;rounded=0;fontSize=11;entryX=0;entryY=0.5;entryDx=0;entryDy=0;exitX=1;exitY=0.3333333333333333;exitDx=0;exitDy=0;exitPerimeter=0;" parent="O806-VVfZz3sZx4Fcp8V-1" source="hcTjZ3_lMF7yvwBpP4Bc-5" target="hcTjZ3_lMF7yvwBpP4Bc-37" edge="1">
          <mxGeometry width="50" height="50" relative="1" as="geometry">
            <mxPoint x="170" y="700" as="sourcePoint" />
            <mxPoint x="340" y="765" as="targetPoint" />
          </mxGeometry>
        </mxCell>
        <mxCell id="hcTjZ3_lMF7yvwBpP4Bc-44" value="ViewStudentsByGroups" style="ellipse;whiteSpace=wrap;html=1;" parent="O806-VVfZz3sZx4Fcp8V-1" vertex="1">
          <mxGeometry x="340" y="830" width="160" height="50" as="geometry" />
        </mxCell>
        <mxCell id="hcTjZ3_lMF7yvwBpP4Bc-45" value="PrintStudentsByGroups" style="ellipse;whiteSpace=wrap;html=1;" parent="O806-VVfZz3sZx4Fcp8V-1" vertex="1">
          <mxGeometry x="340" y="880" width="160" height="50" as="geometry" />
        </mxCell>
        <mxCell id="hcTjZ3_lMF7yvwBpP4Bc-46" value="ViewStudentsByYear" style="ellipse;whiteSpace=wrap;html=1;" parent="O806-VVfZz3sZx4Fcp8V-1" vertex="1">
          <mxGeometry x="340" y="930" width="160" height="50" as="geometry" />
        </mxCell>
        <mxCell id="hcTjZ3_lMF7yvwBpP4Bc-47" value="PrintStudentsByYear" style="ellipse;whiteSpace=wrap;html=1;" parent="O806-VVfZz3sZx4Fcp8V-1" vertex="1">
          <mxGeometry x="340" y="980" width="160" height="50" as="geometry" />
        </mxCell>
        <mxCell id="hcTjZ3_lMF7yvwBpP4Bc-48" value="GenerateGrantsList" style="ellipse;whiteSpace=wrap;html=1;" parent="O806-VVfZz3sZx4Fcp8V-1" vertex="1">
          <mxGeometry x="340" y="1030" width="160" height="50" as="geometry" />
        </mxCell>
        <mxCell id="hcTjZ3_lMF7yvwBpP4Bc-49" value="" style="endArrow=none;html=1;rounded=0;fontSize=11;exitX=1;exitY=0.3333333333333333;exitDx=0;exitDy=0;exitPerimeter=0;entryX=0;entryY=0.5;entryDx=0;entryDy=0;" parent="O806-VVfZz3sZx4Fcp8V-1" source="hcTjZ3_lMF7yvwBpP4Bc-7" target="hcTjZ3_lMF7yvwBpP4Bc-44" edge="1">
          <mxGeometry width="50" height="50" relative="1" as="geometry">
            <mxPoint x="410" y="900" as="sourcePoint" />
            <mxPoint x="460" y="850" as="targetPoint" />
          </mxGeometry>
        </mxCell>
        <mxCell id="hcTjZ3_lMF7yvwBpP4Bc-50" value="" style="endArrow=none;html=1;rounded=0;fontSize=11;exitX=1;exitY=0.3333333333333333;exitDx=0;exitDy=0;exitPerimeter=0;entryX=0;entryY=0.5;entryDx=0;entryDy=0;" parent="O806-VVfZz3sZx4Fcp8V-1" source="hcTjZ3_lMF7yvwBpP4Bc-7" target="hcTjZ3_lMF7yvwBpP4Bc-45" edge="1">
          <mxGeometry width="50" height="50" relative="1" as="geometry">
            <mxPoint x="170" y="930" as="sourcePoint" />
            <mxPoint x="350" y="865" as="targetPoint" />
          </mxGeometry>
        </mxCell>
        <mxCell id="hcTjZ3_lMF7yvwBpP4Bc-51" value="" style="endArrow=none;html=1;rounded=0;fontSize=11;entryX=0;entryY=0.5;entryDx=0;entryDy=0;" parent="O806-VVfZz3sZx4Fcp8V-1" target="hcTjZ3_lMF7yvwBpP4Bc-46" edge="1">
          <mxGeometry width="50" height="50" relative="1" as="geometry">
            <mxPoint x="160" y="920" as="sourcePoint" />
            <mxPoint x="360" y="875" as="targetPoint" />
          </mxGeometry>
        </mxCell>
        <mxCell id="hcTjZ3_lMF7yvwBpP4Bc-52" value="" style="endArrow=none;html=1;rounded=0;fontSize=11;entryX=0;entryY=0.5;entryDx=0;entryDy=0;" parent="O806-VVfZz3sZx4Fcp8V-1" target="hcTjZ3_lMF7yvwBpP4Bc-47" edge="1">
          <mxGeometry width="50" height="50" relative="1" as="geometry">
            <mxPoint x="160" y="920" as="sourcePoint" />
            <mxPoint x="350" y="965" as="targetPoint" />
          </mxGeometry>
        </mxCell>
        <mxCell id="hcTjZ3_lMF7yvwBpP4Bc-53" value="" style="endArrow=none;html=1;rounded=0;fontSize=11;entryX=0;entryY=0.5;entryDx=0;entryDy=0;" parent="O806-VVfZz3sZx4Fcp8V-1" target="hcTjZ3_lMF7yvwBpP4Bc-48" edge="1">
          <mxGeometry width="50" height="50" relative="1" as="geometry">
            <mxPoint x="160" y="920" as="sourcePoint" />
            <mxPoint x="350" y="1015" as="targetPoint" />
          </mxGeometry>
        </mxCell>
        <mxCell id="hcTjZ3_lMF7yvwBpP4Bc-55" value="GenerateContract" style="ellipse;whiteSpace=wrap;html=1;" parent="O806-VVfZz3sZx4Fcp8V-1" vertex="1">
          <mxGeometry x="490" y="280" width="120" height="50" as="geometry" />
        </mxCell>
        <mxCell id="hcTjZ3_lMF7yvwBpP4Bc-58" value="&amp;lt;&amp;lt;includes&amp;gt;&amp;gt;" style="text;html=1;strokeColor=none;fillColor=none;align=center;verticalAlign=middle;whiteSpace=wrap;rounded=0;fontSize=11;" parent="O806-VVfZz3sZx4Fcp8V-1" vertex="1">
          <mxGeometry x="420" y="280" width="60" height="30" as="geometry" />
        </mxCell>
        <mxCell id="nXQH_Cgf1T4Z8N9-ZY1B-1" value="CheckEligibility" style="ellipse;whiteSpace=wrap;html=1;" vertex="1" parent="O806-VVfZz3sZx4Fcp8V-1">
          <mxGeometry x="490" y="80" width="120" height="50" as="geometry" />
        </mxCell>
        <mxCell id="nXQH_Cgf1T4Z8N9-ZY1B-2" value="&amp;lt;&amp;lt;includes&amp;gt;&amp;gt;" style="endArrow=open;endSize=12;dashed=1;html=1;rounded=0;exitX=1;exitY=0.5;exitDx=0;exitDy=0;entryX=0;entryY=0.5;entryDx=0;entryDy=0;" edge="1" parent="O806-VVfZz3sZx4Fcp8V-1" source="hcTjZ3_lMF7yvwBpP4Bc-16" target="nXQH_Cgf1T4Z8N9-ZY1B-1">
          <mxGeometry y="15" width="160" relative="1" as="geometry">
            <mxPoint x="420" y="180" as="sourcePoint" />
            <mxPoint x="580" y="180" as="targetPoint" />
            <mxPoint as="offset" />
          </mxGeometry>
        </mxCell>
      </root>
    </mxGraphModel>
  </diagram>
</mxfile>
